<svg width="180" height="180" viewBox="0 0 180 180" fill="none" xmlns="http://www.w3.org/2000/svg">
<g clip-path="url(#clip0_4_9)">
<path d="M41.6907 69.5437C40.5783 60.6996 46.9559 52.2585 55.8504 50.8026L127.792 39.0266C132.929 38.1858 135.498 37.7653 137.579 38.1348C141.789 38.8826 145.205 41.7707 146.63 45.7861C147.333 47.7698 147.333 50.3616 147.333 55.5452V57.3485C147.333 62.1579 147.333 64.5627 146.697 66.5282C145.412 70.5022 142.314 73.7042 138.392 75.1123C136.452 75.8087 134.056 75.8809 129.262 76.0253L52.0203 78.3514C46.7393 78.5105 42.3475 74.7657 41.6907 69.5437Z" fill="url(#paint0_linear_4_9)"/>
<path d="M40.3333 74.7191C40.3333 70.0331 40.3333 67.69 40.9532 65.7938C42.2062 61.9615 45.2295 58.9569 49.0857 57.7117C50.9938 57.0956 53.3514 57.0956 58.0666 57.0956H135.933C140.649 57.0956 143.006 57.0956 144.914 57.7117C148.77 58.9569 151.794 61.9615 153.047 65.7938C153.667 67.69 153.667 70.0331 153.667 74.7191V85.2535H40.3333V74.7191Z" fill="#6CF794"/>
<path d="M39.6667 85.2535H153.667V113.411H39.6667V85.2535Z" fill="#62E376"/>
<path d="M40.3333 85.2535H153.667V127.491H40.3333V85.2535Z" fill="#4CDD75"/>
<path d="M153.667 125.708C153.667 129.926 153.667 132.034 153.109 133.741C151.981 137.19 149.26 139.894 145.789 141.015C144.072 141.569 141.951 141.569 137.707 141.569H56.2934C52.0497 141.569 49.9278 141.569 48.2106 141.015C44.74 139.894 42.019 137.19 40.8913 133.741C40.3334 132.034 40.3334 129.926 40.3334 125.708V113.411H153.667V125.708Z" fill="#30AA69"/>
<path d="M40.3333 85.2535H94.3335C101.329 85.2535 107 90.8895 107 97.8415V113.411H40.3333V85.2535Z" fill="#30AA69"/>
<path d="M40.3333 113.411H111.04C115.283 113.411 117.406 113.411 119.123 113.966C122.593 115.087 125.314 117.791 126.442 121.24C127 122.946 127 125.055 127 129.272V141.569H56.2933C52.0495 141.569 49.9277 141.569 48.2105 141.015C44.7399 139.894 42.0189 137.19 40.8912 133.741C40.3333 132.034 40.3333 129.926 40.3333 125.708V113.411Z" fill="#177241"/>
<path d="M40.3333 69.6838C40.3333 62.7315 46.0044 57.0956 53 57.0956H75.6C81.896 57.0956 87.0001 62.1679 87.0001 68.425V85.2535H40.3333V69.6838Z" fill="#4CDD75"/>
<g filter="url(#filter0_d_4_9)">
<path d="M27 83.3517C27 81.0087 27 79.8372 27.31 78.8891C27.9364 76.9729 29.4481 75.4706 31.3762 74.848C32.3303 74.54 33.509 74.54 35.8667 74.54H68.04C72.2837 74.54 74.4056 74.54 76.1228 75.0945C79.5934 76.2152 82.3144 78.9193 83.442 82.3684C84 84.0749 84 86.1837 84 90.4012V106.196C84 110.414 84 112.523 83.442 114.229C82.3144 117.678 79.5934 120.382 76.1228 121.503C74.4056 122.057 72.2837 122.057 68.04 122.057H35.8667C33.509 122.057 32.3303 122.057 31.3762 121.75C29.4481 121.127 27.9364 119.625 27.31 117.708C27 116.76 27 115.589 27 113.246V83.3517Z" fill="#16482D"/>
<path d="M42.469 116.393V84.35H55.1896C57.6246 84.35 59.7027 84.7828 61.424 85.6486C63.1558 86.5039 64.473 87.7191 65.3756 89.2941C66.2887 90.8587 66.7453 92.6997 66.7453 94.8171C66.7453 96.9449 66.2835 98.7755 65.3599 100.309C64.4363 101.832 63.098 103 61.3453 103.813C59.6031 104.627 57.4934 105.034 55.0165 105.034H46.4993V99.5894H53.9144C55.2159 99.5894 56.2969 99.4119 57.1576 99.0569C58.0182 98.7025 58.6584 98.1707 59.0783 97.4613C59.5086 96.752 59.7237 95.8705 59.7237 94.8171C59.7237 93.7531 59.5086 92.8561 59.0783 92.126C58.6584 91.3959 58.0129 90.843 57.1418 90.4675C56.2812 90.0816 55.1949 89.8886 53.8829 89.8886H49.2859V116.393H42.469ZM59.8811 101.811L67.8945 116.393H60.3692L52.529 101.811H59.8811Z" fill="#FFFFE9"/>
</g>
</g>
<defs>
<filter id="filter0_d_4_9" x="26.9" y="74.44" width="57.8" height="48.3175" filterUnits="userSpaceOnUse" color-interpolation-filters="sRGB">
<feFlood flood-opacity="0" result="BackgroundImageFix"/>
<feColorMatrix in="SourceAlpha" type="matrix" values="0 0 0 0 0 0 0 0 0 0 0 0 0 0 0 0 0 0 127 0" result="hardAlpha"/>
<feOffset dx="0.3" dy="0.3"/>
<feGaussianBlur stdDeviation="0.2"/>
<feComposite in2="hardAlpha" operator="out"/>
<feColorMatrix type="matrix" values="0 0 0 0 0.0034375 0 0 0 0 0.1375 0 0 0 0 0.0651063 0 0 0 1 0"/>
<feBlend mode="normal" in2="BackgroundImageFix" result="effect1_dropShadow_4_9"/>
<feBlend mode="normal" in="SourceGraphic" in2="effect1_dropShadow_4_9" result="shape"/>
</filter>
<linearGradient id="paint0_linear_4_9" x1="134.667" y1="37.7163" x2="69.4806" y2="80.4046" gradientUnits="userSpaceOnUse">
<stop stop-color="#30AA69"/>
<stop offset="1" stop-color="#16482D"/>
</linearGradient>
<clipPath id="clip0_4_9">
<rect width="180" height="180" fill="white"/>
</clipPath>
</defs>
</svg>
