<svg width="20" height="18" viewBox="0 0 20 18" fill="none" xmlns="http://www.w3.org/2000/svg">
<path d="M2.50811 6.37576C2.33206 5.03772 3.28042 3.7521 4.61757 3.51613L16.1481 1.48133C16.9485 1.34008 17.3487 1.26945 17.6755 1.32294C18.3369 1.4312 18.8801 1.87546 19.1172 2.50217C19.2344 2.81185 19.2444 3.21804 19.2645 4.03042L19.2712 4.30399C19.2905 5.08469 19.3002 5.47504 19.2042 5.7941C19.0102 6.4394 18.5178 6.96324 17.889 7.19338C17.5781 7.30717 17.1908 7.31855 16.4163 7.34132L4.06583 7.70434C3.27254 7.72766 2.61185 7.16416 2.50811 6.37576V6.37576Z" fill="url(#paint0_linear_203_21)"/>
<path d="M2.10526 7.37895C2.10526 6.63444 2.10526 6.26218 2.20314 5.96091C2.40098 5.35204 2.87835 4.87467 3.48722 4.67684C3.78849 4.57895 4.16074 4.57895 4.90525 4.57895H17.2C17.9445 4.57895 18.3168 4.57895 18.618 4.67684C19.2269 4.87467 19.7043 5.35204 19.9021 5.96091C20 6.26218 20 6.63444 20 7.37895V9.05263H2.10526V7.37895Z" fill="#62F48C"/>
<path d="M2 9.05263H20V13.5263H2V9.05263Z" fill="#62E376"/>
<path d="M2.10526 9.05263H20V15.7632H2.10526V9.05263Z" fill="#3FCE67"/>
<path d="M20 15.48C20 16.1501 20 16.4851 19.9119 16.7562C19.7338 17.3042 19.3042 17.7338 18.7562 17.9119C18.4851 18 18.1501 18 17.48 18L4.62527 18C3.95521 18 3.62018 18 3.34904 17.9119C2.80105 17.7338 2.37142 17.3042 2.19337 16.7562C2.10527 16.4851 2.10527 16.1501 2.10527 15.48V13.5263L20 13.5263V15.48Z" fill="#18A85A"/>
<path d="M2.10526 9.05263H11.5353C12.6398 9.05263 13.5353 9.94806 13.5353 11.0526V13.5263H2.10526V9.05263Z" fill="#18A85A"/>
<path d="M2.10526 13.5263H13.8653C14.5353 13.5263 14.8703 13.5263 15.1415 13.6144C15.6895 13.7925 16.1191 14.2221 16.2972 14.7701C16.3853 15.0412 16.3853 15.3763 16.3853 16.0463V18H4.62525C3.95519 18 3.62016 18 3.34902 17.9119C2.80104 17.7338 2.37141 17.3042 2.19335 16.7562C2.10526 16.4851 2.10526 16.1501 2.10526 15.48V13.5263Z" fill="#0B6C38"/>
<path d="M2.10526 6.57895C2.10526 5.47438 3.00069 4.57895 4.10526 4.57895H8.57526C9.56937 4.57895 10.3753 5.38484 10.3753 6.37895V9.05263H2.10526V6.57895Z" fill="#3FCE67"/>
<g filter="url(#filter0_d_203_21)">
<path d="M0 8.57514C0 8.20288 0 8.01676 0.0489435 7.86612C0.147861 7.56169 0.386545 7.323 0.690983 7.22408C0.841616 7.17514 1.02774 7.17514 1.4 7.17514H6.48C7.15006 7.17514 7.48509 7.17514 7.75623 7.26324C8.30422 7.44129 8.73385 7.87092 8.9119 8.41891C9 8.69005 9 9.02508 9 9.69514V12.68C9 13.3501 9 13.6851 8.9119 13.9562C8.73385 14.5042 8.30422 14.9338 7.75623 15.1119C7.48509 15.2 7.15006 15.2 6.48 15.2H1.4C1.02774 15.2 0.841616 15.2 0.690983 15.1511C0.386545 15.0521 0.147861 14.8135 0.0489435 14.509C0 14.3584 0 14.1723 0 13.8V8.57514Z" fill="#16482D"/>
<path d="M2.29304 14.2V8.52727H4.53111C4.95952 8.52727 5.32515 8.6039 5.62799 8.75717C5.93267 8.90859 6.16442 9.12372 6.32323 9.40255C6.48388 9.67954 6.56421 10.0055 6.56421 10.3803C6.56421 10.757 6.48296 11.0811 6.32046 11.3526C6.15796 11.6222 5.92252 11.829 5.61414 11.973C5.3076 12.117 4.93644 12.1891 4.50064 12.1891H3.00213V11.2251H4.30675C4.53573 11.2251 4.72593 11.1937 4.87735 11.131C5.02877 11.0682 5.14141 10.974 5.21527 10.8484C5.29098 10.7229 5.32884 10.5668 5.32884 10.3803C5.32884 10.192 5.29098 10.0332 5.21527 9.9039C5.14141 9.77464 5.02784 9.67677 4.87458 9.6103C4.72316 9.54197 4.53203 9.50781 4.30121 9.50781H3.4924V14.2H2.29304ZM5.35654 11.6185L6.76641 14.2H5.4424L4.063 11.6185H5.35654Z" fill="#FFFFE9"/>
</g>
<defs>
<filter id="filter0_d_203_21" x="0" y="7.17514" width="9.6" height="8.67486" filterUnits="userSpaceOnUse" color-interpolation-filters="sRGB">
<feFlood flood-opacity="0" result="BackgroundImageFix"/>
<feColorMatrix in="SourceAlpha" type="matrix" values="0 0 0 0 0 0 0 0 0 0 0 0 0 0 0 0 0 0 127 0" result="hardAlpha"/>
<feOffset dx="0.3" dy="0.35"/>
<feGaussianBlur stdDeviation="0.15"/>
<feComposite in2="hardAlpha" operator="out"/>
<feColorMatrix type="matrix" values="0 0 0 0 0.00668403 0 0 0 0 0.145833 0 0 0 0 0.0706928 0 0 0 1 0"/>
<feBlend mode="normal" in2="BackgroundImageFix" result="effect1_dropShadow_203_21"/>
<feBlend mode="normal" in="SourceGraphic" in2="effect1_dropShadow_203_21" result="shape"/>
</filter>
<linearGradient id="paint0_linear_203_21" x1="17" y1="1.49995" x2="6.66919" y2="8.22337" gradientUnits="userSpaceOnUse">
<stop stop-color="#3FCE67"/>
<stop offset="1" stop-color="#16482D"/>
</linearGradient>
</defs>
</svg>
