<svg width="21" height="17" viewBox="0 0 21 17" fill="none" xmlns="http://www.w3.org/2000/svg">
<path d="M3.31958 5.55668C3.14394 4.15154 4.15093 2.81043 5.55532 2.57912L16.9146 0.708177C17.7257 0.574578 18.1313 0.507778 18.4598 0.566474C19.1246 0.685285 19.664 1.14415 19.8889 1.78211C20 2.09728 20 2.50906 20 3.33262L20 3.61913C20 4.38324 20 4.7653 19.8996 5.07759C19.6966 5.70897 19.2074 6.2177 18.5882 6.44141C18.2819 6.55206 17.9035 6.56353 17.1467 6.58646L4.95057 6.95604C4.11673 6.98131 3.42329 6.38635 3.31958 5.55668V5.55668Z" fill="url(#paint0_linear_203_21)"/>
<path d="M3.10526 6.37895C3.10526 5.63444 3.10526 5.26218 3.20314 4.96091C3.40098 4.35204 3.87835 3.87467 4.48722 3.67684C4.78849 3.57895 5.16074 3.57895 5.90525 3.57895H18.2C18.9445 3.57895 19.3168 3.57895 19.618 3.67684C20.2269 3.87467 20.7043 4.35204 20.9021 4.96091C21 5.26218 21 5.63444 21 6.37895V8.05263H3.10526V6.37895Z" fill="#6CF794"/>
<path d="M3 8.05264H21V12.5263H3V8.05264Z" fill="#62E376"/>
<path d="M3.10526 8.05264H21V14.7632H3.10526V8.05264Z" fill="#4CDD75"/>
<path d="M21 14.48C21 15.1501 21 15.4851 20.9119 15.7562C20.7338 16.3042 20.3042 16.7338 19.7562 16.9119C19.4851 17 19.1501 17 18.48 17L5.62527 17C4.95521 17 4.62018 17 4.34904 16.9119C3.80105 16.7338 3.37142 16.3042 3.19337 15.7562C3.10527 15.4851 3.10527 15.1501 3.10527 14.48V12.5263L21 12.5263V14.48Z" fill="#30AA69"/>
<path d="M3.10526 8.05264H11.6316C12.7361 8.05264 13.6316 8.94807 13.6316 10.0526V12.5263H3.10526V8.05264Z" fill="#30AA69"/>
<path d="M3.10526 12.5263H14.2695C14.9395 12.5263 15.2746 12.5263 15.5457 12.6144C16.0937 12.7925 16.5233 13.2221 16.7014 13.7701C16.7895 14.0412 16.7895 14.3763 16.7895 15.0463V17H5.62526C4.95519 17 4.62016 17 4.34902 16.9119C3.80104 16.7338 3.37141 16.3042 3.19335 15.7562C3.10526 15.4851 3.10526 15.1501 3.10526 14.48V12.5263Z" fill="#177241"/>
<path d="M3.10526 5.57895C3.10526 4.47438 4.00069 3.57895 5.10526 3.57895H8.67368C9.66779 3.57895 10.4737 4.38484 10.4737 5.37895V8.05263H3.10526V5.57895Z" fill="#4CDD75"/>
<g filter="url(#filter0_d_203_21)">
<path d="M1 7.75049C1 7.37823 1 7.1921 1.04894 7.04147C1.14786 6.73703 1.38655 6.49835 1.69098 6.39943C1.84162 6.35049 2.02774 6.35049 2.4 6.35049H7.48C8.15006 6.35049 8.48509 6.35049 8.75623 6.43859C9.30422 6.61664 9.73385 7.04627 9.9119 7.59426C10 7.86539 10 8.20043 10 8.87049V11.38C10 12.0501 10 12.3851 9.9119 12.6562C9.73385 13.2042 9.30422 13.6338 8.75623 13.8119C8.48509 13.9 8.15006 13.9 7.48 13.9H2.4C2.02774 13.9 1.84162 13.9 1.69098 13.8511C1.38655 13.7521 1.14786 13.5135 1.04894 13.209C1 13.0584 1 12.8723 1 12.5V7.75049Z" fill="#16482D"/>
<path d="M3.44247 13V7.90909H5.45099C5.83546 7.90909 6.16359 7.97786 6.43537 8.11541C6.70881 8.2513 6.91679 8.44437 7.0593 8.6946C7.20348 8.94318 7.27557 9.23568 7.27557 9.57209C7.27557 9.91016 7.20265 10.201 7.05682 10.4446C6.91099 10.6866 6.69969 10.8722 6.42294 11.0014C6.14785 11.1307 5.81475 11.1953 5.42365 11.1953H4.07884V10.3303H5.24964C5.45514 10.3303 5.62583 10.3021 5.76172 10.2457C5.89761 10.1894 5.9987 10.1049 6.06499 9.99219C6.13293 9.8795 6.1669 9.73946 6.1669 9.57209C6.1669 9.40305 6.13293 9.26053 6.06499 9.14453C5.9987 9.02853 5.89678 8.9407 5.75923 8.88104C5.62334 8.81972 5.45182 8.78906 5.24467 8.78906H4.51882V13H3.44247ZM6.19176 10.6832L7.45703 13H6.26882L5.03089 10.6832H6.19176Z" fill="#FFFFE9"/>
</g>
<defs>
<filter id="filter0_d_203_21" x="0.9" y="6.25049" width="9.8" height="8.34951" filterUnits="userSpaceOnUse" color-interpolation-filters="sRGB">
<feFlood flood-opacity="0" result="BackgroundImageFix"/>
<feColorMatrix in="SourceAlpha" type="matrix" values="0 0 0 0 0 0 0 0 0 0 0 0 0 0 0 0 0 0 127 0" result="hardAlpha"/>
<feOffset dx="0.3" dy="0.3"/>
<feGaussianBlur stdDeviation="0.2"/>
<feComposite in2="hardAlpha" operator="out"/>
<feColorMatrix type="matrix" values="0 0 0 0 0.0034375 0 0 0 0 0.1375 0 0 0 0 0.0651063 0 0 0 1 0"/>
<feBlend mode="normal" in2="BackgroundImageFix" result="effect1_dropShadow_203_21"/>
<feBlend mode="normal" in="SourceGraphic" in2="effect1_dropShadow_203_21" result="shape"/>
</filter>
<linearGradient id="paint0_linear_203_21" x1="18" y1="0.499998" x2="7.66919" y2="7.22342" gradientUnits="userSpaceOnUse">
<stop stop-color="#30AA69"/>
<stop offset="1" stop-color="#16482D"/>
</linearGradient>
</defs>
</svg>
